<svg id="Layer_1" data-name="Layer 1" xmlns="http://www.w3.org/2000/svg" xmlns:xlink="http://www.w3.org/1999/xlink" viewBox="0 0 1920 1080"><defs><style>.cls-1{fill:#ccc;}.cls-2{fill:#ffab0d;}.cls-3{fill:#fff;}.cls-3,.cls-4{stroke:#000;stroke-miterlimit:10;}.cls-4{fill:none;}.cls-5{fill:navy;}.cls-6{fill:#f1c443;}.cls-7{fill:#4169e1;}.cls-8{fill:url(#linear-gradient);}.cls-9{fill:url(#linear-gradient-2);}.cls-10{fill:url(#linear-gradient-3);}.cls-11{fill:url(#linear-gradient-4);}.cls-12{fill:url(#linear-gradient-5);}.cls-13,.cls-14,.cls-15,.cls-16,.cls-17{font-size:134px;font-family:Roboto-Regular, Roboto;}.cls-13{fill:#c1272d;}.cls-14{fill:#00a99d;}.cls-15{fill:#0071bc;}.cls-16{fill:#009245;}.cls-17{fill:#fbb03b;}</style><linearGradient id="linear-gradient" x1="88" y1="338.5" x2="693" y2="338.5" gradientUnits="userSpaceOnUse"><stop offset="0" stop-color="#fff" stop-opacity="0"/><stop offset="0.5" stop-color="#c1272d"/></linearGradient><linearGradient id="linear-gradient-2" x1="324.5" y1="427.75" x2="929.5" y2="427.75" gradientUnits="userSpaceOnUse"><stop offset="0" stop-color="#fff" stop-opacity="0"/><stop offset="0.5" stop-color="#00a99d"/></linearGradient><linearGradient id="linear-gradient-3" x1="561" y1="517" x2="1166" y2="517" gradientUnits="userSpaceOnUse"><stop offset="0" stop-color="#fff" stop-opacity="0"/><stop offset="0.5" stop-color="#0071bc"/></linearGradient><linearGradient id="linear-gradient-4" x1="797.5" y1="606.25" x2="1402.5" y2="606.25" gradientUnits="userSpaceOnUse"><stop offset="0" stop-color="#fff" stop-opacity="0"/><stop offset="0.5" stop-color="#009245"/></linearGradient><linearGradient id="linear-gradient-5" x1="1034" y1="695.5" x2="1639" y2="695.5" gradientUnits="userSpaceOnUse"><stop offset="0" stop-color="#fff" stop-opacity="0"/><stop offset="0.5" stop-color="#fbb03b"/></linearGradient></defs><title>content0</title><rect class="cls-1" x="0.5" y="0.5" width="1919" height="1079"/><path d="M1919,1V1079H1V1H1919m1-1H0V1080H1920V0Z"/><polygon class="cls-2" points="960.05 149.93 960.05 241 959.62 241 911.52 213.23 911.52 121.91 960.05 149.93"/><polygon class="cls-3" points="905.36 94.99 905.36 95.17 905.06 94.99 905.36 94.99"/><polygon class="cls-4" points="905.36 94.99 905.36 95.17 905.06 94.99 905.36 94.99"/><polygon class="cls-4" points="905.36 94.99 905.36 95.17 905.06 94.99 905.36 94.99"/><polygon class="cls-5" points="960.05 122.42 960.05 149.93 911.52 121.91 911.52 213.23 886.58 198.83 886.58 80 898.95 87.14 911.24 94.24 911.52 94.4 960.05 122.42"/><polygon class="cls-6" points="960.05 149.93 960.05 241 960.49 241 1008.59 213.23 1008.59 121.91 960.05 149.93"/><polygon class="cls-7" points="960.05 122.42 960.05 149.93 1008.59 121.91 1008.59 213.23 1033.53 198.83 1033.53 80 1021.16 87.14 1008.87 94.24 1008.59 94.4 960.05 122.42"/><rect class="cls-8" x="88" y="318" width="605" height="41" rx="12"/><rect class="cls-9" x="324.5" y="407.25" width="605" height="41" rx="12"/><rect class="cls-10" x="561" y="496.5" width="605" height="41" rx="12"/><rect class="cls-11" x="797.5" y="585.75" width="605" height="41" rx="12"/><rect class="cls-12" x="1034" y="675" width="605" height="41" rx="12"/><text class="cls-13" transform="translate(730.95 374.8)">O</text><text class="cls-14" transform="translate(966.95 463.8)">C</text><text class="cls-15" transform="translate(1202.95 552.8)">E</text><text class="cls-16" transform="translate(1434.95 642.8)">A</text><text class="cls-17" transform="translate(1668.95 731.8)">N</text></svg>