<svg id="Layer_1" data-name="Layer 1" xmlns="http://www.w3.org/2000/svg" viewBox="0 0 2004.98 199.99"><defs><style>.cls-1{fill:#f1c443;}.cls-2{fill:#4169e1;}</style></defs><title>divider</title><path class="cls-1" d="M364,98a100,100,0,0,0-200,0h36c.8-34.83,28.47-62.81,63.5-62.81A64.32,64.32,0,0,1,327.8,98Z" transform="translate(0 -0.01)"/><path class="cls-2" d="M200,100c0-.67,0-1.35,0-2H163.8c0,.5,0,1,0,1.51,0,.17,0,.33,0,.5a64.31,64.31,0,0,1-128.62,0c0-.17,0-.33,0-.5,0-.51,0-1,0-1.51H0c0,.66,0,1.34,0,2a100,100,0,0,0,200,0Z" transform="translate(0 -0.01)"/><path class="cls-1" d="M692,98a100,100,0,0,0-200,0h36c.8-34.83,28.47-62.81,63.5-62.81A64.32,64.32,0,0,1,655.8,98Z" transform="translate(0 -0.01)"/><path class="cls-2" d="M528,100c0-.67,0-1.35,0-2H491.8c0,.5,0,1,0,1.51,0,.17,0,.33,0,.5a64.31,64.31,0,0,1-128.62,0c0-.17,0-.33,0-.5,0-.51,0-1,0-1.51H328c0,.66,0,1.34,0,2a100,100,0,0,0,200,0Z" transform="translate(0 -0.01)"/><path class="cls-1" d="M1020,98a100,100,0,0,0-200,0h36c.8-34.83,28.47-62.81,63.5-62.81A64.32,64.32,0,0,1,983.8,98Z" transform="translate(0 -0.01)"/><path class="cls-2" d="M856,100c0-.67,0-1.35,0-2H819.8c0,.5,0,1,0,1.51,0,.17,0,.33,0,.5a64.31,64.31,0,0,1-128.62,0c0-.17,0-.33,0-.5,0-.51,0-1,0-1.51H656c0,.66,0,1.34,0,2a100,100,0,0,0,200,0Z" transform="translate(0 -0.01)"/><path class="cls-1" d="M1348,98a100,100,0,0,0-200,0h36c.8-34.83,28.47-62.81,63.5-62.81A64.32,64.32,0,0,1,1311.8,98Z" transform="translate(0 -0.01)"/><path class="cls-2" d="M1184,100c0-.67,0-1.35,0-2H1147.8c0,.5,0,1,0,1.51,0,.17,0,.33,0,.5a64.31,64.31,0,0,1-128.62,0c0-.17,0-.33,0-.5,0-.51,0-1,0-1.51H984c0,.66,0,1.34,0,2a100,100,0,0,0,200,0Z" transform="translate(0 -0.01)"/><path class="cls-1" d="M1677,98a100,100,0,0,0-200,0h36c.8-34.83,28.47-62.81,63.5-62.81A64.32,64.32,0,0,1,1640.8,98Z" transform="translate(0 -0.01)"/><path class="cls-2" d="M1513,100c0-.67,0-1.35,0-2H1476.8c0,.5,0,1,0,1.51,0,.17,0,.33,0,.5a64.31,64.31,0,0,1-128.62,0c0-.17,0-.33,0-.5,0-.51,0-1,0-1.51H1313c0,.66,0,1.34,0,2a100,100,0,0,0,200,0Z" transform="translate(0 -0.01)"/><path class="cls-1" d="M2005,98a100,100,0,0,0-200,0h36c.8-34.83,28.47-62.81,63.5-62.81A64.32,64.32,0,0,1,1968.8,98Z" transform="translate(0 -0.01)"/><path class="cls-2" d="M1841,100c0-.67,0-1.35,0-2H1804.8c0,.5,0,1,0,1.51,0,.17,0,.33,0,.5a64.31,64.31,0,0,1-128.62,0c0-.17,0-.33,0-.5,0-.51,0-1,0-1.51H1641c0,.66,0,1.34,0,2a100,100,0,0,0,200,0Z" transform="translate(0 -0.01)"/></svg>