<svg id="Layer_1" data-name="Layer 1" xmlns="http://www.w3.org/2000/svg" viewBox="0 0 615.5 144"><defs><style>.cls-1{fill:#ffab0d;}.cls-2{fill:#fff;}.cls-2,.cls-3{stroke:#000;stroke-miterlimit:10;}.cls-3{fill:none;}.cls-4{fill:navy;}.cls-5{fill:#f1c443;}.cls-6{fill:#4169e1;}</style></defs><title>LogoWithText</title><polygon class="cls-1" points="65.72 62.55 65.72 144 65.33 144 22.31 119.16 22.31 37.48 65.72 62.55"/><polygon class="cls-2" points="16.8 13.41 16.8 13.56 16.53 13.41 16.8 13.41"/><polygon class="cls-3" points="16.8 13.41 16.8 13.56 16.53 13.41 16.8 13.41"/><polygon class="cls-3" points="16.8 13.41 16.8 13.56 16.53 13.41 16.8 13.41"/><polygon class="cls-4" points="65.72 37.94 65.72 62.55 22.31 37.48 22.31 119.16 0 106.28 0 0 11.07 6.39 22.06 12.74 22.31 12.88 65.72 37.94"/><polygon class="cls-5" points="65.72 62.55 65.72 144 66.1 144 109.13 119.16 109.13 37.48 65.72 62.55"/><polygon class="cls-6" points="65.72 37.94 65.72 62.55 109.13 37.48 109.13 119.16 131.44 106.28 131.44 0 120.37 6.39 109.37 12.74 109.13 12.88 65.72 37.94"/><path class="cls-4" d="M237.29,354.36l14-71.35L274,334.59,297.63,283l12.55,71.35H299.91L293.5,314.3l-19.64,43.11-19.08-43.15-7.14,40.1Z" transform="translate(-44.5 -252)"/><path class="cls-4" d="M360.86,297.41H334.25v15.94h25.83v9.42H334.25v22.17h26.61v9.42H324.24V288h36.62Z" transform="translate(-44.5 -252)"/><path class="cls-4" d="M396.49,326.08,417,354.36H404.78l-18.95-27.17H384v27.17H374V288h11.73q13.15,0,19,4.94a18.16,18.16,0,0,1,6.45,14.53,18.87,18.87,0,0,1-4,12.12A18.07,18.07,0,0,1,396.49,326.08ZM384,318.47h3.18q14.24,0,14.23-10.88,0-10.18-13.84-10.18H384Z" transform="translate(-44.5 -252)"/><path class="cls-4" d="M436,288v40q0,8.55,2.79,12.5a13.66,13.66,0,0,0,11.74,5.72q7.6,0,11.77-5.72,2.79-3.83,2.8-12.5V288h10v42.72q0,10.48-6.53,17.28a25.28,25.28,0,0,1-36.06,0Q426,341.21,426,330.72V288Z" transform="translate(-44.5 -252)"/><path class="cls-4" d="M491,354.36V288H505q10,0,15.82,2a29.56,29.56,0,0,1,11.3,6.58q10.27,9.38,10.27,24.63t-10.7,24.75a31.15,31.15,0,0,1-11.26,6.58q-5.5,1.85-15.6,1.85Zm10-9.42h4.51a37.87,37.87,0,0,0,11.22-1.41,23,23,0,0,0,8.08-4.77q7.39-6.75,7.39-17.58T525,303.47q-6.59-6.06-19.39-6.06h-4.51Z" transform="translate(-44.5 -252)"/><path class="cls-4" d="M565,288v66.36H555V288Z" transform="translate(-44.5 -252)"/><path class="cls-4" d="M599.23,297.41v56.95h-10V297.41H574V288h40.49v9.41Z" transform="translate(-44.5 -252)"/><path class="cls-4" d="M660,297.41H633.4v15.94h25.83v9.42H633.4v22.17H660v9.42H623.38V288H660Z" transform="translate(-44.5 -252)"/></svg>