<svg id="Layer_1" data-name="Layer 1" xmlns="http://www.w3.org/2000/svg" viewBox="0 0 877.81 961.73"><defs><style>.cls-1{fill:#ffab0d;}.cls-2{fill:#fff;}.cls-2,.cls-3{stroke:#000;stroke-miterlimit:10;}.cls-3{fill:none;}.cls-4{fill:navy;}.cls-5{fill:#f1c443;}.cls-6{fill:#4169e1;}</style></defs><title>MeruditeLogo3-01</title><polygon class="cls-1" points="438.9 417.73 438.9 961.73 436.33 961.73 148.98 795.83 148.98 250.34 438.9 417.73"/><polygon class="cls-2" points="112.2 89.54 112.2 90.59 110.37 89.54 112.2 89.54"/><polygon class="cls-3" points="112.2 89.54 112.2 90.59 110.37 89.54 112.2 89.54"/><polygon class="cls-3" points="112.2 89.54 112.2 90.59 110.37 89.54 112.2 89.54"/><polygon class="cls-4" points="438.9 253.4 438.9 417.73 148.98 250.34 148.98 795.83 0 709.81 0 0 73.9 42.66 147.34 85.06 148.98 86 438.9 253.4"/><polygon class="cls-5" points="438.9 417.73 438.9 961.73 441.48 961.73 728.84 795.83 728.84 250.34 438.9 417.73"/><polygon class="cls-6" points="438.9 253.4 438.9 417.73 728.84 250.34 728.84 795.83 877.81 709.81 877.81 0 803.91 42.66 730.47 85.06 728.84 86 438.9 253.4"/></svg>