<svg id="Layer_1" data-name="Layer 1" xmlns="http://www.w3.org/2000/svg" viewBox="0 0 1920 1080"><defs><style>.cls-1{fill:#4d4d4d;}.cls-2{fill:#ffab0d;}.cls-3,.cls-8{fill:#fff;}.cls-3,.cls-4{stroke:#000;stroke-miterlimit:10;}.cls-4{fill:none;}.cls-5{fill:navy;}.cls-6{fill:#f1c443;}.cls-7{fill:#4169e1;}.cls-8{font-size:128px;font-family:Helvetica;}</style></defs><title>placeholder</title><rect class="cls-1" x="0.5" y="0.5" width="1919" height="1079"/><path d="M1919.05,1V1079H1.05V1h1918m1-1H.05V1080h1920V0Z" transform="translate(-0.05)"/><polygon class="cls-2" points="960 177.93 960 269 959.57 269 911.46 241.23 911.46 149.91 960 177.93"/><polygon class="cls-3" points="905.31 122.99 905.31 123.17 905 122.99 905.31 122.99"/><polygon class="cls-4" points="905.31 122.99 905.31 123.17 905 122.99 905.31 122.99"/><polygon class="cls-4" points="905.31 122.99 905.31 123.17 905 122.99 905.31 122.99"/><polygon class="cls-5" points="960 150.42 960 177.93 911.46 149.91 911.46 241.23 886.52 226.83 886.52 108 898.9 115.14 911.19 122.24 911.46 122.4 960 150.42"/><polygon class="cls-6" points="960 177.93 960 269 960.43 269 1008.54 241.23 1008.54 149.91 960 177.93"/><polygon class="cls-7" points="960 150.42 960 177.93 1008.54 149.91 1008.54 241.23 1033.48 226.83 1033.48 108 1021.1 115.14 1008.81 122.24 1008.54 122.4 960 150.42"/><text class="cls-8" transform="translate(491.79 390.03)">PLACEHOLDER</text></svg>